<svg xmlns="http://www.w3.org/2000/svg" width="128" height="80" viewBox="0 0 128 80" fill="none"><path d="M53.7743 12.0233H23.5118V35.3627H53.7743V12.0233Z" fill="#ffffff"/><path d="M53.2125 12.5725V34.7987H24.075V12.5725H53.225M54.3375 11.4594H22.9625V35.9119H54.3375V11.4594V11.4594Z" fill="#8a54f5"/><path d="M49.6746 7.9071H19.4121V31.2465H49.6746V7.9071Z" fill="#ffffff"/><path d="M49.1125 8.45632V30.6825H19.9625V8.45632H49.1125ZM50.225 7.34314H18.85V31.7957H50.225V7.34314V7.34314Z" fill="#8a54f5"/><path d="M44.925 12.8729H22.9625V13.9861H44.925V12.8729Z" fill="#8a54f5"/><path d="M44.925 15.8612H22.9625V16.9744H44.925V15.8612Z" fill="#8a54f5"/><path d="M44.925 18.6993H22.9625V19.8125H44.925V18.6993Z" fill="#8a54f5"/><path d="M44.925 21.5265H22.9625V22.6397H44.925V21.5265Z" fill="#8a54f5"/><path d="M63.4001 69.9204C78.9607 69.9204 91.5751 57.2983 91.5751 41.7281C91.5751 26.1579 78.9607 13.5358 63.4001 13.5358C47.8395 13.5358 35.2251 26.1579 35.2251 41.7281C35.2251 57.2983 47.8395 69.9204 63.4001 69.9204Z" fill="#8a54f5"/><path d="M63.3506 61.627C63.2756 50.9329 63.9006 57.9873 55.9006 53.4595C44.8256 47.3807 47.0881 29.6323 59.4381 26.8056C69.9631 23.0283 81.6131 35.1732 77.0006 45.4796C74.4506 52.0836 68.0006 56.3738 63.5506 61.6895L63.3506 61.627ZM57.3506 39.4509V42.0525H69.2381V39.4509H57.3506ZM57.3506 37.1369H69.3006C69.1006 36.2114 69.8881 34.4603 68.4631 34.5228C64.7506 34.5979 61.0506 34.4478 57.3381 34.5979V37.1495L57.3506 37.1369ZM57.3756 44.3414V46.9555C59.2631 46.9555 61.0631 46.9555 62.8756 46.943C63.7131 46.5177 63.1256 45.1544 63.2881 44.3414H57.3756V44.3414Z" fill="#ffffff"/><path d="M95.6244 72.093C88.4744 72.093 82.6494 66.2769 82.6494 59.11C82.6494 51.9431 88.4619 46.1395 95.6244 46.1395C102.787 46.1395 108.587 51.9556 108.587 59.11C108.587 66.2644 102.774 72.093 95.6244 72.093Z" fill="#ffffff"/><path d="M95.6251 46.7034C102.475 46.7034 108.038 52.2693 108.038 59.1235C108.038 65.9778 102.475 71.5437 95.6251 71.5437C88.7751 71.5437 83.2126 65.9778 83.2126 59.1235C83.2126 52.2693 88.7751 46.7034 95.6251 46.7034M95.6251 45.5902C88.1501 45.5902 82.1001 51.6439 82.1001 59.1235C82.1001 66.6031 88.1501 72.6569 95.6251 72.6569C103.1 72.6569 109.15 66.6031 109.15 59.1235C109.15 51.6439 103.1 45.5902 95.6251 45.5902Z" fill="#8a54f5"/><path d="M88.4117 58.9612C88.0117 54.3584 91.7742 50.5311 95.9617 50.6811C100.087 50.8187 103.549 54.7837 102.949 59.2989" fill="#ffffff"/><path d="M103.5 59.3753L102.4 59.2252C102.662 57.2365 102.075 55.2103 100.762 53.6593C99.5123 52.1834 97.7623 51.2954 95.9373 51.2328C94.1248 51.1578 92.2623 51.9458 90.9123 53.3716C89.4998 54.86 88.7873 56.8738 88.9623 58.9125L87.8498 59.0126C87.6498 56.6612 88.4748 54.3347 90.0998 52.6087C91.6748 50.9576 93.8123 50.0571 95.9748 50.1196C98.0998 50.1947 100.162 51.2203 101.612 52.9339C103.125 54.7225 103.812 57.0614 103.5 59.3628V59.3753Z" fill="#8a54f5"/><path d="M88.7495 62.829C87.337 62.829 86.187 61.6783 86.187 60.2649C86.187 58.8515 87.337 57.7008 88.7495 57.7008C89.062 57.7008 89.312 57.951 89.312 58.2636V62.2911C89.312 62.6038 89.062 62.854 88.7495 62.854V62.829Z" fill="#ffffff"/><path d="M88.7499 58.25V62.2775C87.6374 62.2775 86.7374 61.3769 86.7374 60.2638C86.7374 59.1506 87.6374 58.25 88.7499 58.25ZM88.7499 57.1368C87.0249 57.1368 85.6249 58.5377 85.6249 60.2638C85.6249 61.9898 87.0249 63.3907 88.7499 63.3907C89.3624 63.3907 89.8624 62.8904 89.8624 62.2775V58.25C89.8624 57.6371 89.3624 57.1368 88.7499 57.1368Z" fill="#8a54f5"/><path d="M102.612 63.0517C102.299 63.0517 102.049 62.8016 102.049 62.4889V58.4614C102.049 58.1487 102.299 57.8986 102.612 57.8986C104.024 57.8986 105.174 59.0493 105.174 60.4626C105.174 61.876 104.024 63.0267 102.612 63.0267V63.0517Z" fill="#ffffff"/><path d="M102.613 58.4624C103.725 58.4624 104.625 59.363 104.625 60.4762C104.625 61.5894 103.725 62.4899 102.613 62.4899V58.4624ZM102.613 57.3492C102 57.3492 101.5 57.8496 101.5 58.4624V62.4899C101.5 63.1028 102 63.6031 102.613 63.6031C104.338 63.6031 105.738 62.2022 105.738 60.4762C105.738 58.7501 104.338 57.3492 102.613 57.3492Z" fill="#8a54f5"/><path d="M96.2122 67.043H92.9372C90.3372 67.043 88.2122 64.9167 88.2122 62.3151H89.3247C89.3247 64.3038 90.9372 65.9298 92.9372 65.9298H96.2122V67.043Z" fill="#8a54f5"/><path d="M95.7743 65.8893H93.8493C93.4765 65.8893 93.1743 66.1917 93.1743 66.5647C93.1743 66.9377 93.4765 67.2401 93.8493 67.2401H95.7743C96.1471 67.2401 96.4493 66.9377 96.4493 66.5647C96.4493 66.1917 96.1471 65.8893 95.7743 65.8893Z" fill="#8a54f5"/><path d="M95.775 67.7915H93.85C93.175 67.7915 92.625 67.2411 92.625 66.5657C92.625 65.8903 93.175 65.34 93.85 65.34H95.775C96.45 65.34 97 65.8903 97 66.5657C97 67.2411 96.45 67.7915 95.775 67.7915ZM93.85 66.4406C93.7875 66.4406 93.7375 66.4907 93.7375 66.5532C93.7375 66.6158 93.7875 66.6658 93.85 66.6658H95.775C95.8375 66.6658 95.8875 66.6158 95.8875 66.5532C95.8875 66.4907 95.8375 66.4406 95.775 66.4406H93.85Z" fill="#8a54f5"/><path d="M29.2385 64.4411C30.9299 64.4411 32.301 63.0692 32.301 61.3768C32.301 59.6844 30.9299 58.3124 29.2385 58.3124C27.5472 58.3124 26.176 59.6844 26.176 61.3768C26.176 63.0692 27.5472 64.4411 29.2385 64.4411Z" fill="#8a54f5"/><path d="M39.1156 54.8939L30.5266 60.1874L31.11 61.1352L39.6991 55.8417L39.1156 54.8939Z" fill="#8a54f5"/><path d="M98.9877 27.8699C102.736 27.8699 105.775 24.8291 105.775 21.0782C105.775 17.3272 102.736 14.2865 98.9877 14.2865C95.2391 14.2865 92.2002 17.3272 92.2002 21.0782C92.2002 24.8291 95.2391 27.8699 98.9877 27.8699Z" fill="#8a54f5"/><path d="M95.9637 22.1391L85.1744 29.4403L85.7977 30.3624L96.587 23.0613L95.9637 22.1391Z" fill="#8a54f5"/></svg>