<svg xmlns="http://www.w3.org/2000/svg" width="128" height="80" viewBox="0 0 128 80" fill="#00bf69"><path d="M91.2172 56H26.0189L27.6818 11.2H92.7822L91.2172 56Z" fill="white" stroke="#00bf69"/><path d="M93.0997 11.418L93.1 11.409V11.4V11.3V10.8H92.6H27.9H27.4177L27.4004 11.282L25.8004 55.782L25.7817 56.3H26.3H91H91.4824L91.4997 55.818L93.0997 11.418ZM25.3183 56.8L26.9824 10.5H93.5807L91.8187 56.8H25.3183Z" fill="#00bf69" stroke="#00bf69"/><path d="M92.7131 14H27.6134L27.6871 11.2H92.7868L92.7131 14Z" fill="#00bf69" stroke="#00bf69"/><path d="M93.0996 11.4208L93.1213 10.9H92.6H27.9H27.4204L27.4005 11.3792L27.3005 13.7792L27.2788 14.3H27.8H92.5H92.9796L92.9996 13.8208L93.0996 11.4208ZM26.8196 14.7L26.9812 10.5H93.5704L93.3281 14.7H26.8196Z" fill="#00bf69" stroke="#00bf69"/><path d="M91.1182 56H26.0189L27.6818 11.2H92.7811L91.1182 56Z" fill="white" stroke="#00bf69"/><path d="M93.0997 11.418L93.1 11.409V11.4V11.3V10.8H92.6H27.8H27.3177L27.3004 11.282L25.7004 55.782L25.6817 56.3H26.2H91H91.4824L91.4997 55.818L93.0997 11.418ZM25.3183 56.8L26.9824 10.5H93.4818L91.8177 56.8H25.3183Z" fill="#00bf69" stroke="#00bf69"/><path d="M92.7131 14H27.6134L27.6871 11.2H92.7868L92.7131 14Z" fill="#00bf69" stroke="#00bf69"/><path d="M93.0996 11.4208L93.1213 10.9H92.6H27.9H27.4204L27.4005 11.3792L27.3005 13.7792L27.2788 14.3H27.8H92.5H92.9796L92.9996 13.8208L93.0996 11.4208ZM26.8196 14.7L26.9812 10.5H93.4804L93.3189 14.7H26.8196Z" fill="#00bf69" stroke="#00bf69"/><path d="M59.6045 41.1H59.8C65.0285 41.1 69.4051 36.8173 69.5001 31.5909C69.5951 26.2663 65.315 21.7974 59.9955 21.7H59.8C54.5716 21.7 50.1951 25.9826 50.0999 31.2089L59.6045 41.1ZM59.6045 41.1C54.285 41.0026 50.0049 36.5337 50.0999 31.2091L59.6045 41.1Z" fill="#00bf69" stroke="#00bf69"/><path d="M59.9096 21.4001L59.9096 21.4H59.9001H59.7001C54.3289 21.4 49.8056 25.8168 49.7002 31.1902L49.7001 31.1902V31.2C49.7001 36.6609 54.0069 41.2946 59.5907 41.3999L59.5907 41.4H59.6001H59.8001C65.1713 41.4 69.6947 36.9832 69.8 31.6098L69.8001 31.6098V31.6C69.8001 26.1391 65.4934 21.5054 59.9096 21.4001ZM49.3 31.2083C49.3954 25.4854 54.0688 21 59.7001 21H59.8376H59.8829H59.8956H59.8959C65.6157 21.0976 70.1956 25.867 70.1002 31.5917C70.0048 37.3146 65.3314 41.8 59.7001 41.8H59.6995H59.699H59.6984H59.6978H59.6972H59.6966H59.6961H59.6955H59.6949H59.6944H59.6938H59.6933H59.6927H59.6921H59.6916H59.691H59.6905H59.6899H59.6894H59.6888H59.6883H59.6878H59.6872H59.6867H59.6862H59.6856H59.6851H59.6846H59.6841H59.6835H59.683H59.6825H59.682H59.6815H59.681H59.6804H59.6799H59.6794H59.6789H59.6784H59.6779H59.6774H59.6769H59.6764H59.6759H59.6754H59.675H59.6745H59.674H59.6735H59.673H59.6725H59.6721H59.6716H59.6711H59.6706H59.6702H59.6697H59.6692H59.6688H59.6683H59.6678H59.6674H59.6669H59.6665H59.666H59.6656H59.6651H59.6646H59.6642H59.6638H59.6633H59.6629H59.6624H59.662H59.6615H59.6611H59.6607H59.6602H59.6598H59.6594H59.6589H59.6585H59.6581H59.6577H59.6572H59.6568H59.6564H59.656H59.6556H59.6552H59.6547H59.6543H59.6539H59.6535H59.6531H59.6527H59.6523H59.6519H59.6515H59.6511H59.6507H59.6503H59.6499H59.6495H59.6491H59.6487H59.6483H59.6479H59.6475H59.6471H59.6468H59.6464H59.646H59.6456H59.6452H59.6448H59.6445H59.6441H59.6437H59.6433H59.643H59.6426H59.6422H59.6418H59.6415H59.6411H59.6407H59.6404H59.64H59.6397H59.6393H59.6389H59.6386H59.6382H59.6379H59.6375H59.6371H59.6368H59.6364H59.6361H59.6357H59.6354H59.635H59.6347H59.6343H59.634H59.6336H59.6333H59.6329H59.6326H59.6323H59.6319H59.6316H59.6312H59.6309H59.6306H59.6302H59.6299H59.6296H59.6292H59.6289H59.6286H59.6282H59.6279H59.6276H59.6272H59.6269H59.6266H59.6263H59.6259H59.6256H59.6253H59.625H59.6246H59.6243H59.624H59.6237H59.6234H59.623H59.6227H59.6224H59.6221H59.6218H59.6215H59.6211H59.6208H59.6205H59.6202H59.6199H59.6196H59.6193H59.6189H59.6186H59.6183H59.618H59.6177H59.6174H59.6171H59.6168H59.6165H59.6162H59.6159H59.6156H59.6153H59.615H59.6147H59.6143H59.614H59.6137H59.6134H59.6131H59.6128H59.6125H59.6122H59.6119H59.6116H59.6113H59.611H59.6107H59.6104H59.6101H59.6098H59.6095H59.6092H59.6089H59.6087H59.6084H59.6081H59.6078H59.6075H59.6072H59.6069H59.6066H59.6063H59.606H59.6057H59.6054H59.6051H59.6048H59.6045H59.6042H59.6039H59.6036H59.6033H59.6031H59.6028H59.6025H59.6022H59.6019H59.6016H59.6013H59.601H59.6007H59.6004H59.6001H59.5998H59.5995H59.5992H59.5989H59.5987H59.5984H59.5981H59.5978H59.5975H59.5972H59.5969H59.5966H59.5963H59.596H59.5957H59.5954H59.5951H59.5948H59.5945H59.5942H59.594H59.5937H59.5934H59.5931H59.5928H59.5925H59.5922H59.5919H59.5916H59.5913H59.591H59.5907H59.5904H59.5901H59.5898H59.5895H59.5892H59.5889H59.5886H59.5883H59.588H59.5877H59.5874H59.5871H59.5868H59.5865H59.5862H59.5859H59.5856H59.5853H59.585H59.5847H59.5844H59.5841H59.5838H59.5835H59.5831H59.5828H59.5825H59.5822H59.5819H59.5816H59.5813H59.581H59.5807H59.5804H59.58H59.5797H59.5794H59.5791H59.5788H59.5785H59.5782H59.5778H59.5775H59.5772H59.5769H59.5766H59.5762H59.5759H59.5756H59.5753H59.575H59.5746H59.5743H59.574H59.5737H59.5733H59.573H59.5727H59.5723H59.572H59.5717H59.5713H59.571H59.5707H59.5703H59.57H59.5697H59.5693H59.569H59.5687H59.5683H59.568H59.5676H59.5673H59.5669H59.5666H59.5663H59.5659H59.5656H59.5652H59.5649H59.5645H59.5642H59.5638H59.5635H59.5631H59.5627H59.5624H59.562H59.5617H59.5613H59.561H59.5606H59.5602H59.5599H59.5595H59.5591H59.5588H59.5584H59.558H59.5576H59.5573H59.5569H59.5565H59.5562H59.5558H59.5554H59.555H59.5546H59.5543H59.5539H59.5535H59.5531H59.5527H59.5523H59.5519H59.5515H59.5511H59.5508H59.5504H59.55H59.5496H59.5492H59.5488H59.5484H59.548H59.5475H59.5471H59.5467H59.5463H59.5459H59.5455H59.5451H59.5447H59.5443H59.5438H59.5434H59.543H59.5426H59.5421H59.5417H59.5413H59.5409H59.5404H59.54H59.5396H59.5391H59.5387H59.5383H59.5378H59.5374H59.5369H59.5365H59.536H59.5356H59.5351H59.5347H59.5342H59.5338H59.5333H59.5329H59.5324H59.5319H59.5315H59.531H59.5305H59.5301H59.5296H59.5291H59.5287H59.5282H59.5277H59.5272H59.5267H59.5263H59.5258H59.5253H59.5248H59.5243H59.5238H59.5233H59.5228H59.5223H59.5218H59.5213H59.5208H59.5203H59.5198H59.5193H59.5188H59.5183H59.5177H59.5172H59.5167H59.5162H59.5157H59.5151H59.5146H59.5141H59.5135H59.513H59.5125H59.5119H59.5114H59.5108H59.5103H59.5098H59.5092H59.5087H59.5081H59.5075H59.507H59.5064H59.5059H59.5053H59.5047H59.5044C53.7846 41.7024 49.2046 36.9331 49.3 31.2083Z" fill="#00bf69" stroke="#00bf69"/><path d="M64.6163 31.9722L56.7269 35.4238L56.9735 28.1919L64.6163 31.9722Z" fill="white" stroke="#00bf69"/><path d="M93.9 45.5H93.7059C89.8004 45.4055 86.7897 43.7905 85.2 42.5585V33.3H102.7V42.5505C101.007 43.8027 97.988 45.5 93.9 45.5Z" fill="#00bf69" stroke="#00bf69"/><path d="M103 33.6V33.1H102.5H85.4H84.9V33.6V42.5V42.75L85.1 42.9C86.7643 44.1483 89.7621 45.6966 93.6868 45.7998L93.6868 45.8H93.7H93.9C98.0402 45.8 101.04 44.1425 102.788 42.9085L103 42.7591V42.5V33.6ZM84.5 32.7197V32.7H103.5V42.9487C102.159 43.9357 98.7734 46.2 94 46.2H93.9994H93.9988H93.9982H93.9977H93.9971H93.9965H93.9959H93.9953H93.9947H93.9941H93.9936H93.993H93.9924H93.9918H93.9912H93.9906H93.99H93.9895H93.9889H93.9883H93.9877H93.9871H93.9865H93.9859H93.9854H93.9848H93.9842H93.9836H93.983H93.9824H93.9818H93.9812H93.9807H93.9801H93.9795H93.9789H93.9783H93.9777H93.9771H93.9766H93.976H93.9754H93.9748H93.9742H93.9736H93.973H93.9725H93.9719H93.9713H93.9707H93.9701H93.9695H93.9689H93.9684H93.9678H93.9672H93.9666H93.966H93.9654H93.9648H93.9643H93.9637H93.9631H93.9625H93.9619H93.9613H93.9607H93.9602H93.9596H93.959H93.9584H93.9578H93.9572H93.9566H93.9561H93.9555H93.9549H93.9543H93.9537H93.9531H93.9525H93.952H93.9514H93.9508H93.9502H93.9496H93.949H93.9484H93.9479H93.9473H93.9467H93.9461H93.9455H93.9449H93.9443H93.9437H93.9432H93.9426H93.942H93.9414H93.9408H93.9402H93.9396H93.9391H93.9385H93.9379H93.9373H93.9367H93.9361H93.9355H93.935H93.9344H93.9338H93.9332H93.9326H93.932H93.9314H93.9309H93.9303H93.9297H93.9291H93.9285H93.9279H93.9273H93.9268H93.9262H93.9256H93.925H93.9244H93.9238H93.9232H93.9227H93.9221H93.9215H93.9209H93.9203H93.9197H93.9191H93.9186H93.918H93.9174H93.9168H93.9162H93.9156H93.915H93.9145H93.9139H93.9133H93.9127H93.9121H93.9115H93.9109H93.9104H93.9098H93.9092H93.9086H93.908H93.9074H93.9068H93.9062H93.9057H93.9051H93.9045H93.9039H93.9033H93.9027H93.9021H93.9016H93.901H93.9004H93.8998H93.8992H93.8986H93.898H93.8975H93.8969H93.8963H93.8957H93.8951H93.8945H93.8939H93.8934H93.8928H93.8922H93.8916H93.891H93.8904H93.8898H93.8893H93.8887H93.8881H93.8875H93.8869H93.8863H93.8857H93.8852H93.8846H93.884H93.8834H93.8828H93.8822H93.8816H93.8811H93.8805H93.8799H93.8793H93.8787H93.8781H93.8775H93.877H93.8764H93.8758H93.8752H93.8746H93.874H93.8734H93.8729H93.8723H93.8717H93.8711H93.8705H93.8699H93.8693H93.8687H93.8682H93.8676H93.867H93.8664H93.8658H93.8652H93.8646H93.8641H93.8635H93.8629H93.8623H93.8617H93.8611H93.8605H93.86H93.8594H93.8588H93.8582H93.8576H93.857H93.8564H93.8559H93.8553H93.8547H93.8541H93.8535H93.8529H93.8523H93.8518H93.8512H93.8506H93.85H93.8494H93.8488H93.8482H93.8477H93.8471H93.8465H93.8459H93.8453H93.8447H93.8441H93.8436H93.843H93.8424H93.8418H93.8412H93.8406H93.84H93.8395H93.8389H93.8383H93.8377H93.8371H93.8365H93.8359H93.8354H93.8348H93.8342H93.8336H93.833H93.8324H93.8318H93.8312H93.8307H93.8301H93.8295H93.8289H93.8283H93.8277H93.8271H93.8266H93.826H93.8254H93.8248H93.8242H93.8236H93.823H93.8225H93.8219H93.8213H93.8207H93.8201H93.8195H93.8189H93.8184H93.8178H93.8172H93.8166H93.816H93.8154H93.8148H93.8143H93.8137H93.8131H93.8125H93.8119H93.8113H93.8107H93.8102H93.8096H93.809H93.8084H93.8078H93.8072H93.8066H93.8061H93.8055H93.8049H93.8043H93.8037H93.8031H93.8025H93.802H93.8014H93.8008H93.8002H93.7996H93.799H93.7984H93.7978H93.7973H93.7967H93.7961H93.7955H93.7949H93.7943H93.7937H93.7932H93.7926H93.792H93.7914H93.7908H93.7902H93.7896H93.7891H93.7885H93.7879H93.7873H93.7867H93.7861H93.7855H93.785H93.7844H93.7838H93.7832H93.7826H93.782H93.7814H93.7809H93.7803H93.7797H93.7791H93.7785H93.7779H93.7773H93.7768H93.7762H93.7756H93.775H93.7744H93.7738H93.7732H93.7727H93.7721H93.7715H93.7709H93.7703H93.7697H93.7691H93.7686H93.768H93.7674H93.7668H93.7662H93.7656H93.765H93.7645H93.7639H93.7633H93.7627H93.7621H93.7615H93.7609H93.7603H93.7598H93.7592H93.7586H93.758H93.7574H93.7568H93.7562H93.7557H93.7551H93.7545H93.7539H93.7533H93.7527H93.7521H93.7516H93.751H93.7504H93.7498H93.7492H93.7486H93.748H93.7475H93.7469H93.7463H93.7457H93.7451H93.7445H93.7439H93.7434H93.7428H93.7422H93.7416H93.741H93.7404H93.7398H93.7393H93.7387H93.7381H93.7375H93.7369H93.7363H93.7357H93.7352H93.7346H93.734H93.7334H93.7328H93.7322H93.7316H93.7311H93.7305H93.7299H93.7293H93.7287H93.7281H93.7275H93.727H93.7264H93.7258H93.7252H93.7246H93.724H93.7234H93.7228H93.7223H93.7217H93.7211H93.7205H93.7199H93.7193H93.7187H93.7182H93.7176H93.717H93.7164H93.7158H93.7152H93.7146H93.7141H93.7135H93.7129H93.7123H93.7117H93.7111H93.7105H93.71H93.7094H93.7088H93.7082H93.7076H93.707H93.7064H93.7059H93.7053H93.705C89.1188 46.1068 85.831 43.9263 84.5 42.9486V42.94V42.9184V42.8967V42.8751V42.8534V42.8318V42.8101V42.7885V42.7669V42.7452V42.7236V42.702V42.6803V42.6587V42.6371V42.6155V42.5938V42.5722V42.5506V42.529V42.5074V42.4858V42.4642V42.4426V42.421V42.3994V42.3778V42.3562V42.3346V42.313V42.2914V42.2698V42.2482V42.2266V42.205V42.1834V42.1619V42.1403V42.1187V42.0971V42.0756V42.054V42.0324V42.0108V41.9893V41.9677V41.9461V41.9246V41.903V41.8815V41.8599V41.8384V41.8168V41.7953V41.7737V41.7522V41.7306V41.7091V41.6875V41.666V41.6445V41.6229V41.6014V41.5798V41.5583V41.5368V41.5153V41.4937V41.4722V41.4507V41.4292V41.4076V41.3861V41.3646V41.3431V41.3216V41.3V41.2785V41.257V41.2355V41.214V41.1925V41.171V41.1495V41.128V41.1065V41.085V41.0635V41.042V41.0205V40.999V40.9775V40.956V40.9345V40.913V40.8916V40.8701V40.8486V40.8271V40.8056V40.7841V40.7627V40.7412V40.7197V40.6982V40.6768V40.6553V40.6338V40.6124V40.5909V40.5694V40.548V40.5265V40.505V40.4836V40.4621V40.4406V40.4192V40.3977V40.3763V40.3548V40.3334V40.3119V40.2904V40.269V40.2475V40.2261V40.2046V40.1832V40.1618V40.1403V40.1189V40.0974V40.076V40.0545V40.0331V40.0117V39.9902V39.9688V39.9473V39.9259V39.9045V39.883V39.8616V39.8402V39.8187V39.7973V39.7759V39.7545V39.733V39.7116V39.6902V39.6688V39.6473V39.6259V39.6045V39.5831V39.5616V39.5402V39.5188V39.4974V39.476V39.4545V39.4331V39.4117V39.3903V39.3689V39.3475V39.3261V39.3046V39.2832V39.2618V39.2404V39.219V39.1976V39.1762V39.1548V39.1334V39.112V39.0906V39.0692V39.0477V39.0263V39.0049V38.9835V38.9621V38.9407V38.9193V38.8979V38.8765V38.8551V38.8337V38.8123V38.7909V38.7695V38.7481V38.7267V38.7053V38.6839V38.6626V38.6412V38.6198V38.5984V38.577V38.5556V38.5342V38.5128V38.4914V38.47V38.4486V38.4272V38.4058V38.3844V38.363V38.3417V38.3203V38.2989V38.2775V38.2561V38.2347V38.2133V38.1919V38.1705V38.1491V38.1278V38.1064V38.085V38.0636V38.0422V38.0208V37.9994V37.978V37.9567V37.9353V37.9139V37.8925V37.8711V37.8497V37.8283V37.8069V37.7856V37.7642V37.7428V37.7214V37.7V37.6786V37.6572V37.6359V37.6145V37.5931V37.5717V37.5503V37.5289V37.5075V37.4861V37.4648V37.4434V37.422V37.4006V37.3792V37.3578V37.3364V37.315V37.2937V37.2723V37.2509V37.2295V37.2081V37.1867V37.1653V37.1439V37.1225V37.1012V37.0798V37.0584V37.037V37.0156V36.9942V36.9728V36.9514V36.93V36.9086V36.8872V36.8658V36.8444V36.8231V36.8017V36.7803V36.7589V36.7375V36.7161V36.6947V36.6733V36.6519V36.6305V36.6091V36.5877V36.5663V36.5449V36.5235V36.5021V36.4807V36.4593V36.4379V36.4165V36.3951V36.3737V36.3523V36.3309V36.3095V36.2881V36.2667V36.2452V36.2238V36.2024V36.181V36.1596V36.1382V36.1168V36.0954V36.074V36.0526V36.0311V36.0097V35.9883V35.9669V35.9455V35.9241V35.9026V35.8812V35.8598V35.8384V35.817V35.7955V35.7741V35.7527V35.7313V35.7098V35.6884V35.667V35.6456V35.6241V35.6027V35.5813V35.5599V35.5384V35.517V35.4956V35.4741V35.4527V35.4312V35.4098V35.3884V35.3669V35.3455V35.324V35.3026V35.2812V35.2597V35.2383V35.2168V35.1954V35.1739V35.1525V35.131V35.1096V35.0881V35.0667V35.0452V35.0238V35.0023V34.9808V34.9594V34.9379V34.9165V34.895V34.8735V34.8521V34.8306V34.8091V34.7877V34.7662V34.7447V34.7233V34.7018V34.6803V34.6588V34.6374V34.6159V34.5944V34.5729V34.5514V34.5299V34.5085V34.487V34.4655V34.444V34.4225V34.401V34.3795V34.358V34.3365V34.315V34.2935V34.272V34.2505V34.229V34.2075V34.186V34.1645V34.143V34.1215V34.1V34.0785V34.0569V34.0354V34.0139V33.9924V33.9709V33.9494V33.9278V33.9063V33.8848V33.8632V33.8417V33.8202V33.7986V33.7771V33.7556V33.734V33.7125V33.691V33.6694V33.6479V33.6263V33.6048V33.5832V33.5617V33.5401V33.5186V33.497V33.4754V33.4539V33.4323V33.4107V33.3892V33.3676V33.346V33.3245V33.3029V33.2813V33.2597V33.2382V33.2166V33.195V33.1734V33.1518V33.1302V33.1087V33.0871V33.0655V33.0439V33.0223V33.0007V32.9791V32.9575V32.9359V32.9142V32.8926V32.871V32.8494V32.8278V32.8062V32.7846V32.7629V32.7413V32.7197Z" fill="#00bf69" stroke="#00bf69"/><path d="M109.2 33.8V48.3" stroke="#00bf69" stroke-width="1.4" stroke-miterlimit="10" fill="#c60808"/><path d="M96.7999 36.6L74.8999 31.2L95.0999 25.8L117.1 31.6L96.7999 36.6Z" fill="white" stroke="#00bf69" stroke-width="1.4" stroke-miterlimit="10" stroke-linecap="round" stroke-linejoin="round"/><path d="M111.4 58.5H107.1V50.7C107.1 49.5 108.1 48.5 109.3 48.5C110.5 48.5 111.5 49.5 111.5 50.7V58.5H111.4Z" fill="white" stroke="#00bf69" stroke-width="1.4" stroke-miterlimit="10"/><path d="M45.4283 67.8H14.13L15.3714 46.6H46.6697L45.4283 67.8Z" fill="white" stroke="#00bf69"/><path d="M46.9991 46.8288L47.0296 46.3H46.4999H15.5999H15.1279L15.1007 46.7712L13.9007 67.5712L13.8702 68.1H14.3999H45.2999H45.7719L45.7991 67.6288L46.9991 46.8288ZM13.4304 68.5L14.7711 45.9H47.4694L46.1287 68.5H13.4304Z" fill="#00bf69" stroke="#00bf69"/><path d="M44.6285 67.8H13.3302L14.5716 46.6H45.8699L44.6285 67.8Z" fill="white" stroke="#00bf69"/><path d="M46.0992 46.8288L46.1297 46.3H45.6H14.7H14.228L14.2008 46.7712L13.0008 67.5712L12.9703 68.1H13.5H44.4H44.872L44.8992 67.6288L46.0992 46.8288ZM12.5305 68.5L13.8712 45.9H46.5695L45.2288 68.5H12.5305Z" fill="#00bf69" stroke="#00bf69"/><path d="M45.7272 49.2H14.4287L14.5731 46.6H45.8716L45.7272 49.2Z" fill="#00bf69" stroke="#00bf69"/><path d="M46.0996 46.8227L46.1233 46.3H45.6001H14.7001H14.2223L14.2006 46.7773L14.1006 48.9773L14.0769 49.5H14.6001H45.5001H45.9779L45.9996 49.0227L46.0996 46.8227ZM13.631 49.9L13.871 45.9H46.5692L46.3292 49.9H13.631Z" fill="#00bf69" stroke="#00bf69"/><path d="M34.5001 64.6H23.8001C22.9001 64.6 22.2001 63.8 22.3001 62.8C22.4001 61.8 23.3001 61 24.2001 61H34.9001C35.8001 61 36.5001 61.8 36.4001 62.8C36.3001 63.8 35.4001 64.6 34.5001 64.6Z" fill="white" stroke="#00bf69" stroke-width="1.4" stroke-miterlimit="10" stroke-linecap="round" stroke-linejoin="round"/><path d="M85.7557 36.0371L85.75 36.0429C85.75 36.0333 85.75 36.0237 85.75 36.0141V36C85.75 35.6578 85.7501 35.3277 85.7612 35.0147L86.9487 35.2786C86.5353 35.4536 86.1339 35.6968 85.7655 36.0283L85.7557 36.0371Z" fill="#00bf69" stroke="#00bf69"/></svg>