<svg xmlns="http://www.w3.org/2000/svg" width="2096" height="1721" viewBox="0 0 2096 1721" fill="none">
<path fill-rule="evenodd" clip-rule="evenodd" d="M840 1444H1256L1284 1659H812L840 1444Z" fill="#C8CACB"/>
<path fill-rule="evenodd" clip-rule="evenodd" d="M812.168 1659H1283.84L1347.39 1698.83C1353.01 1702.35 1354.71 1709.76 1351.19 1715.37C1348.99 1718.87 1345.15 1721 1341.02 1721H754.983C748.355 1721 742.983 1715.63 742.983 1709C742.983 1704.87 745.109 1701.03 748.61 1698.83L812.168 1659Z" fill="#DEE0E2"/>
<path d="M50 4H2046C2071.41 4 2092 24.5949 2092 50V1394C2092 1419.41 2071.41 1440 2046 1440H50C24.5949 1440 4 1419.41 4 1394V50C4 24.5949 24.5949 4 50 4Z" stroke="#C8CACB" stroke-width="8"/>
<path fill-rule="evenodd" clip-rule="evenodd" d="M4 1254H2092V1394C2092 1419.41 2071.41 1440 2046 1440H50C24.5949 1440 4 1419.41 4 1394V1254Z" fill="#DEE0E2"/>
<path fill-rule="evenodd" clip-rule="evenodd" d="M1088 1363.43C1084.86 1372.55 1075.44 1388.7 1065.75 1388.87C1059.32 1389 1057.25 1385.06 1049.9 1385.06C1042.55 1385.06 1040.25 1388.75 1034.17 1388.99C1023.88 1389.39 1008 1365.68 1008 1345.01C1008 1326.02 1021.23 1316.61 1032.79 1316.44C1038.99 1316.33 1044.85 1320.62 1048.63 1320.62C1052.42 1320.62 1059.54 1315.46 1067.01 1316.22C1070.14 1316.35 1078.93 1317.48 1084.57 1325.72C1069.6 1335.49 1071.94 1355.92 1088 1363.43ZM1067.11 1293C1068.34 1304.22 1058.32 1315.94 1047.87 1315.12C1046.58 1305.32 1055.81 1293.46 1067.11 1293Z" fill="#C8CACB"/>
<path fill-rule="evenodd" clip-rule="evenodd" d="M2046 4H50C24.5949 4 4 24.5949 4 50V1250H2092V50C2092 24.5949 2071.41 4 2046 4ZM2008 88H88V1168H2008V88Z" fill="#C8CACB"/>
<line y1="1252" x2="2092" y2="1252" stroke="#C8CACB" stroke-width="4"/>
<circle cx="1048.06" cy="49.3198" r="9.5" transform="rotate(74.4084 1048.06 49.3198)" fill="#B9B9B9" stroke="#868686"/>
</svg>