<svg xmlns="http://www.w3.org/2000/svg" width="930" height="1289" viewBox="0 0 930 1289" fill="none">
<path class="eae-frame" fill-rule="evenodd" clip-rule="evenodd" d="M929.177 1218L928.07 72.9996C928.033 34.3397 896.662 3.02993 858.002 3.06729L129.003 3.77189L129.002 2.77189C129.001 1.66728 128.104 0.772761 127 0.773829L69.9999 0.828921C68.8953 0.829988 68.0008 1.72624 68.0018 2.83085L68.003 4.00663C31.6791 6.60546 3.03475 36.9149 3.07049 73.8936L3.10239 106.894L2.10239 106.895C0.997835 106.896 0.103254 107.792 0.104321 108.897L0.143949 149.897C0.145017 151.001 1.04133 151.896 2.14588 151.895L3.14588 151.894L3.16328 169.894L2.16328 169.895C1.05873 169.896 0.164145 170.792 0.165213 171.896L0.20484 212.896C0.205908 214.001 1.10222 214.896 2.20677 214.895L3.20677 214.894L4.17717 1218.89C4.21453 1257.55 35.5849 1288.86 74.2448 1288.83L859.244 1288.07C897.904 1288.03 929.214 1256.66 929.177 1218ZM882.18 1221.04C882.19 1232.09 873.245 1241.05 862.199 1241.06L68.1994 1241.83C57.1537 1241.84 48.1907 1232.9 48.18 1221.85L47.0647 67.8511C47.054 56.8055 55.9996 47.8425 67.0453 47.8318L861.045 47.0644C872.091 47.0537 881.054 55.9993 881.064 67.045L882.18 1221.04Z" fill="black"/>
<path class="eae-frame-element" fill-rule="evenodd" clip-rule="evenodd" d="M459.53 31.452C459.527 28.1383 462.21 25.4494 465.524 25.4462C468.838 25.443 471.527 28.1267 471.53 31.4404C471.533 34.7541 468.849 37.443 465.536 37.4462C462.222 37.4494 459.533 34.7657 459.53 31.452Z" fill="white" fill-opacity="0.2"/>
<path class="eae-frame-element" fill-rule="evenodd" clip-rule="evenodd" d="M462.53 31.4492C462.528 29.7923 463.87 28.4479 465.527 28.4463C467.184 28.4447 468.528 29.7865 468.53 31.4434C468.531 33.1002 467.189 34.4447 465.533 34.4463C463.876 34.4479 462.531 33.106 462.53 31.4492Z" fill="white" fill-opacity="0.2"/>
</svg>