<svg xmlns="http://www.w3.org/2000/svg" width="862" height="1203" viewBox="0 0 862 1203" fill="none">
<path class="eae-frame" fill-rule="evenodd" clip-rule="evenodd" d="M3.89455 40C3.89455 17.9086 21.8032 0 43.8945 0H822C844.091 0 862 17.9086 862 40V1162.5C862 1184.59 844.091 1202.5 822 1202.5H43.8945C21.8031 1202.5 3.89455 1184.59 3.89455 1162.5V432.249C3.24536 432.699 2.45698 432.963 1.60694 432.963C0.719451 432.963 0 432.244 0 431.356V366.292C0 365.405 0.719451 364.685 1.60694 364.685C2.45698 364.685 3.24536 364.949 3.89455 365.4V350.315C3.24536 350.765 2.45698 351.029 1.60694 351.029C0.719451 351.029 0 350.31 0 349.422V284.358C0 283.471 0.719451 282.751 1.60694 282.751C2.45698 282.751 3.24536 283.015 3.89455 283.466V238.66C3.24536 239.111 2.45698 239.375 1.60694 239.375C0.719451 239.375 0 238.655 0 237.768V202.425C0 201.537 0.719451 200.818 1.60694 200.818C2.45698 200.818 3.24536 201.082 3.89455 201.532V40ZM55 89C50.5817 89 47 92.5817 47 97V1105C47 1109.42 50.5817 1113 55 1113H807C811.418 1113 815 1109.42 815 1105V97C815 92.5817 811.418 89 807 89H55Z" fill="#151515"/>
<path class="eae-frame-element" fill-rule="evenodd" clip-rule="evenodd" d="M404.824 42.5735C403.05 42.5735 401.611 44.012 401.611 45.7866C401.611 47.5611 403.05 48.9997 404.824 48.9997H461.872C463.647 48.9997 465.085 47.5611 465.085 45.7866C465.085 44.012 463.647 42.5735 461.872 42.5735H404.824ZM432.947 1173.79C422.622 1173.79 414.253 1165.42 414.253 1155.1C414.253 1144.78 422.622 1136.42 432.947 1136.42C443.272 1136.42 451.64 1144.78 451.64 1155.1C451.64 1165.42 443.272 1173.79 432.947 1173.79ZM432.947 1176.79C420.966 1176.79 411.253 1167.08 411.253 1155.1C411.253 1143.13 420.966 1133.42 432.947 1133.42C444.928 1133.42 454.64 1143.13 454.64 1155.1C454.64 1167.08 444.928 1176.79 432.947 1176.79Z" fill="#E5E5E5" fill-opacity="0.5"/>
</svg>