<svg xmlns="http://www.w3.org/2000/svg" width="474" height="952" viewBox="0 0 474 952" fill="none">
<path fill-rule="evenodd" class="eae-frame" clip-rule="evenodd" d="M5 62C5 27.7583 32.7583 0 67 0H407C441.242 0 469 27.7583 469 62V105V186.5C469 185.7 469.7 185 470.5 185H472.5C473.3 185 474 185.7 474 186.5V246.5C474 247.3 473.3 248 472.5 248H470.5C469.7 248 469 247.3 469 246.5V849V890C469 924.242 441.242 952 407 952H67C32.7583 952 5 924.242 5 890V849V322.5C5 323.3 4.3 324 3.5 324H1.5C0.7 324 0 323.3 0 322.5V262.5C0 261.7 0.7 261 1.5 261H3.5C4.3 261 5 261.7 5 262.5V246.5C5 247.3 4.3 248 3.5 248H1.5C0.7 248 0 247.3 0 246.5V186.5C0 185.7 0.7 185 1.5 185H3.5C4.3 185 5 185.7 5 186.5V146C5 146.6 4.6 147 4 147H1C0.4 147 0 146.6 0 146V118C0 117.4 0.4 117 1 117H4C4.6 117 5 117.4 5 118V105V62ZM26 105V849H448V105H26Z" fill="black"/>
<path class="eae-frame-element" d="M191 65.5C194.866 65.5 198 62.366 198 58.5C198 54.634 194.866 51.5 191 51.5C187.134 51.5 184 54.634 184 58.5C184 62.366 187.134 65.5 191 65.5Z" fill="white" fill-opacity="0.17"/>
<path class="eae-frame-element" d="M284.5 54.5H227C224.8 54.5 223 56.3 223 58.5C223 60.7 224.8 62.5 227 62.5H284.5C286.7 62.5 288.5 60.7 288.5 58.5C288.5 56.3 286.7 54.5 284.5 54.5Z" fill="white" fill-opacity="0.17"/>
<path class="eae-frame-element" d="M237.5 934.5C255.725 934.5 270.5 919.725 270.5 901.5C270.5 883.275 255.725 868.5 237.5 868.5C219.275 868.5 204.5 883.275 204.5 901.5C204.5 919.725 219.275 934.5 237.5 934.5Z" fill="white" fill-opacity="0.17"/>
</svg>