<svg xmlns="http://www.w3.org/2000/svg" width="1912" height="1090" viewBox="0 0 1912 1090" fill="none">
<path class="eae-frame" fill-rule="evenodd" clip-rule="evenodd" d="M247 1H1677C1701.3 1 1721 20.6995 1721 45V1001C1721 1025.3 1701.3 1045 1677 1045H247C222.699 1045 203 1025.3 203 1001V45C203 20.6995 222.699 1 247 1ZM242 68H1682V968H242V68Z" fill="#212121"/>
<path d="M1682 68H1682.5V67.5H1682V68ZM242 68V67.5H241.5V68H242ZM1682 968V968.5H1682.5V968H1682ZM242 968H241.5V968.5H242V968ZM1677 0.5H247V1.5H1677V0.5ZM1721.5 45C1721.5 20.4233 1701.58 0.5 1677 0.5V1.5C1701.02 1.5 1720.5 20.9756 1720.5 45H1721.5ZM1721.5 1001V45H1720.5V1001H1721.5ZM1677 1045.5C1701.58 1045.5 1721.5 1025.58 1721.5 1001H1720.5C1720.5 1025.02 1701.02 1044.5 1677 1044.5V1045.5ZM247 1045.5H1677V1044.5H247V1045.5ZM202.5 1001C202.5 1025.58 222.423 1045.5 247 1045.5V1044.5C222.976 1044.5 203.5 1025.02 203.5 1001H202.5ZM202.5 45V1001H203.5V45H202.5ZM247 0.5C222.423 0.5 202.5 20.4233 202.5 45H203.5C203.5 20.9756 222.976 1.5 247 1.5V0.5ZM1682 67.5H242V68.5H1682V67.5ZM1682.5 968V68H1681.5V968H1682.5ZM242 968.5H1682V967.5H242V968.5ZM241.5 68V968H242.5V68H241.5Z" fill="black"/>
<path d="M203.5 986.5H1720.5V1000.5C1720.5 1024.8 1700.8 1044.5 1676.5 1044.5H247.5C223.2 1044.5 203.5 1024.8 203.5 1000.5V986.5Z" fill="#D9D9D9" fill-opacity="0.35"/>
<path class="eae-frame-element" fill-rule="evenodd" clip-rule="evenodd" d="M27 1019H1885C1889.42 1019 1893 1021.98 1893 1025.67V1044H19V1025.67C19 1021.98 22.5817 1019 27 1019Z" fill="url(#paint0_linear_22_904)"/>
<g filter="url(#filter0_d_22_904)">
<path class="eae-frame" fill-rule="evenodd" clip-rule="evenodd" d="M19 1044H1893L1885.06 1049.03C1870.58 1058.2 1854.41 1063 1838 1063H74C57.5859 1063 42.483 1061.17 28 1052L19 1044Z" fill="url(#paint1_linear_22_904)"/>
</g>
<path fill-rule="evenodd" clip-rule="evenodd" d="M822 1019H1091V1020C1091 1031.05 1082.05 1040 1071 1040H842C830.954 1040 822 1031.05 822 1020V1019Z" fill="url(#paint2_linear_22_904)"/>
<path class="eae-frame-element" fill-rule="evenodd" clip-rule="evenodd" d="M956 46.5C959.314 46.5 962 43.8137 962 40.5C962 37.1863 959.314 34.5 956 34.5C952.686 34.5 950 37.1863 950 40.5C950 43.8137 952.686 46.5 956 46.5Z" fill="#181818"/>
<path class="eae-frame-element" fill-rule="evenodd" clip-rule="evenodd" d="M956 43.5C957.657 43.5 959 42.1569 959 40.5C959 38.8432 957.657 37.5 956 37.5C954.343 37.5 953 38.8432 953 40.5C953 42.1569 954.343 43.5 956 43.5Z" fill="#0F0F0F"/>
<path d="M900.6 998.788H902.509L907 1009.75H907.154L911.644 998.788H913.554V1012H912.057V1001.96H911.928L907.799 1012H906.354L902.226 1001.96H902.097V1012H900.6V998.788ZM919.471 1012.23C918.843 1012.23 918.274 1012.11 917.762 1011.88C917.25 1011.64 916.844 1011.29 916.543 1010.84C916.241 1010.38 916.091 1009.83 916.091 1009.19C916.091 1008.62 916.203 1008.16 916.426 1007.81C916.65 1007.45 916.949 1007.17 917.323 1006.97C917.697 1006.77 918.11 1006.62 918.562 1006.52C919.018 1006.41 919.476 1006.33 919.936 1006.27C920.538 1006.19 921.026 1006.14 921.4 1006.1C921.779 1006.05 922.054 1005.98 922.226 1005.88C922.402 1005.79 922.491 1005.61 922.491 1005.37V1005.32C922.491 1004.68 922.316 1004.19 921.968 1003.83C921.624 1003.48 921.101 1003.3 920.4 1003.3C919.674 1003.3 919.104 1003.46 918.691 1003.78C918.278 1004.1 917.988 1004.44 917.82 1004.8L916.375 1004.28C916.633 1003.68 916.977 1003.21 917.407 1002.88C917.841 1002.54 918.314 1002.3 918.826 1002.17C919.342 1002.03 919.85 1001.96 920.349 1001.96C920.667 1001.96 921.033 1002 921.445 1002.08C921.863 1002.15 922.265 1002.3 922.652 1002.54C923.043 1002.77 923.368 1003.12 923.626 1003.59C923.884 1004.06 924.013 1004.68 924.013 1005.47V1012H922.491V1010.66H922.413C922.31 1010.87 922.138 1011.1 921.897 1011.35C921.656 1011.59 921.336 1011.8 920.936 1011.97C920.536 1012.15 920.048 1012.23 919.471 1012.23ZM919.704 1010.86C920.306 1010.86 920.813 1010.75 921.226 1010.51C921.643 1010.27 921.957 1009.97 922.168 1009.59C922.383 1009.22 922.491 1008.83 922.491 1008.41V1007.02C922.426 1007.1 922.284 1007.17 922.065 1007.23C921.85 1007.29 921.6 1007.35 921.316 1007.39C921.037 1007.44 920.764 1007.48 920.497 1007.51C920.235 1007.54 920.022 1007.57 919.858 1007.59C919.463 1007.64 919.093 1007.72 918.749 1007.84C918.409 1007.95 918.134 1008.12 917.923 1008.35C917.717 1008.57 917.613 1008.88 917.613 1009.26C917.613 1009.79 917.809 1010.19 918.2 1010.46C918.596 1010.73 919.097 1010.86 919.704 1010.86ZM930.817 1012.21C929.888 1012.21 929.089 1011.99 928.418 1011.55C927.747 1011.11 927.231 1010.51 926.869 1009.74C926.508 1008.97 926.327 1008.09 926.327 1007.1C926.327 1006.09 926.512 1005.2 926.882 1004.43C927.256 1003.66 927.777 1003.05 928.443 1002.62C929.114 1002.18 929.897 1001.96 930.792 1001.96C931.488 1001.96 932.116 1002.09 932.675 1002.35C933.235 1002.61 933.693 1002.97 934.05 1003.43C934.407 1003.9 934.628 1004.44 934.714 1005.06H933.192C933.075 1004.61 932.817 1004.21 932.417 1003.86C932.022 1003.51 931.488 1003.33 930.817 1003.33C930.224 1003.33 929.704 1003.48 929.256 1003.79C928.813 1004.1 928.467 1004.53 928.218 1005.09C927.972 1005.65 927.85 1006.3 927.85 1007.05C927.85 1007.81 927.97 1008.48 928.211 1009.05C928.456 1009.61 928.8 1010.05 929.243 1010.37C929.691 1010.68 930.215 1010.84 930.817 1010.84C931.213 1010.84 931.572 1010.77 931.895 1010.63C932.217 1010.49 932.49 1010.3 932.714 1010.04C932.938 1009.78 933.097 1009.47 933.192 1009.11H934.714C934.628 1009.69 934.415 1010.22 934.075 1010.69C933.74 1011.15 933.295 1011.52 932.74 1011.8C932.189 1012.07 931.549 1012.21 930.817 1012.21ZM937.146 1012V998.788H941.765C942.686 998.788 943.445 998.947 944.042 999.265C944.64 999.579 945.085 1000 945.378 1000.54C945.67 1001.07 945.817 1001.65 945.817 1002.3C945.817 1002.87 945.716 1003.33 945.513 1003.7C945.316 1004.07 945.053 1004.37 944.726 1004.58C944.404 1004.8 944.053 1004.96 943.675 1005.06V1005.19C944.079 1005.21 944.485 1005.36 944.894 1005.61C945.303 1005.87 945.645 1006.24 945.92 1006.72C946.195 1007.2 946.333 1007.79 946.333 1008.49C946.333 1009.15 946.182 1009.75 945.881 1010.28C945.58 1010.81 945.105 1011.23 944.455 1011.54C943.806 1011.85 942.961 1012 941.92 1012H937.146ZM938.746 1010.58H941.92C942.965 1010.58 943.707 1010.38 944.146 1009.97C944.589 1009.57 944.81 1009.07 944.81 1008.49C944.81 1008.04 944.696 1007.63 944.468 1007.25C944.24 1006.87 943.916 1006.56 943.494 1006.34C943.073 1006.1 942.574 1005.99 941.997 1005.99H938.746V1010.58ZM938.746 1004.59H941.714C942.195 1004.59 942.63 1004.5 943.017 1004.31C943.408 1004.12 943.718 1003.85 943.946 1003.51C944.178 1003.17 944.294 1002.76 944.294 1002.3C944.294 1001.72 944.092 1001.22 943.688 1000.82C943.283 1000.41 942.643 1000.21 941.765 1000.21H938.746V1004.59ZM952.781 1012.21C951.886 1012.21 951.101 1011.99 950.426 1011.57C949.755 1011.14 949.23 1010.55 948.852 1009.78C948.478 1009.02 948.291 1008.12 948.291 1007.1C948.291 1006.06 948.478 1005.16 948.852 1004.39C949.23 1003.62 949.755 1003.03 950.426 1002.6C951.101 1002.17 951.886 1001.96 952.781 1001.96C953.675 1001.96 954.458 1002.17 955.129 1002.6C955.804 1003.03 956.329 1003.62 956.703 1004.39C957.082 1005.16 957.271 1006.06 957.271 1007.1C957.271 1008.12 957.082 1009.02 956.703 1009.78C956.329 1010.55 955.804 1011.14 955.129 1011.57C954.458 1011.99 953.675 1012.21 952.781 1012.21ZM952.781 1010.84C953.46 1010.84 954.019 1010.66 954.458 1010.32C954.897 1009.97 955.221 1009.51 955.432 1008.94C955.643 1008.37 955.748 1007.76 955.748 1007.1C955.748 1006.43 955.643 1005.82 955.432 1005.25C955.221 1004.67 954.897 1004.21 954.458 1003.86C954.019 1003.51 953.46 1003.33 952.781 1003.33C952.101 1003.33 951.542 1003.51 951.103 1003.86C950.665 1004.21 950.34 1004.67 950.129 1005.25C949.918 1005.82 949.813 1006.43 949.813 1007.1C949.813 1007.76 949.918 1008.37 950.129 1008.94C950.34 1009.51 950.665 1009.97 951.103 1010.32C951.542 1010.66 952.101 1010.84 952.781 1010.84ZM963.62 1012.21C962.726 1012.21 961.941 1011.99 961.266 1011.57C960.595 1011.14 960.07 1010.55 959.692 1009.78C959.317 1009.02 959.13 1008.12 959.13 1007.1C959.13 1006.06 959.317 1005.16 959.692 1004.39C960.07 1003.62 960.595 1003.03 961.266 1002.6C961.941 1002.17 962.726 1001.96 963.62 1001.96C964.515 1001.96 965.298 1002.17 965.969 1002.6C966.644 1003.03 967.169 1003.62 967.543 1004.39C967.921 1005.16 968.11 1006.06 968.11 1007.1C968.11 1008.12 967.921 1009.02 967.543 1009.78C967.169 1010.55 966.644 1011.14 965.969 1011.57C965.298 1011.99 964.515 1012.21 963.62 1012.21ZM963.62 1010.84C964.3 1010.84 964.859 1010.66 965.298 1010.32C965.736 1009.97 966.061 1009.51 966.272 1008.94C966.483 1008.37 966.588 1007.76 966.588 1007.1C966.588 1006.43 966.483 1005.82 966.272 1005.25C966.061 1004.67 965.736 1004.21 965.298 1003.86C964.859 1003.51 964.3 1003.33 963.62 1003.33C962.941 1003.33 962.382 1003.51 961.943 1003.86C961.504 1004.21 961.18 1004.67 960.969 1005.25C960.758 1005.82 960.653 1006.43 960.653 1007.1C960.653 1007.76 960.758 1008.37 960.969 1008.94C961.18 1009.51 961.504 1009.97 961.943 1010.32C962.382 1010.66 962.941 1010.84 963.62 1010.84ZM971.854 1008.39L971.828 1006.5H972.138L976.473 1002.09H978.357L973.738 1006.76H973.608L971.854 1008.39ZM970.434 1012V998.788H971.957V1012H970.434ZM976.731 1012L972.86 1007.1L973.944 1006.04L978.666 1012H976.731ZM986.174 1012H984.497L989.348 998.788H990.999L995.851 1012H994.173L990.225 1000.88H990.122L986.174 1012ZM986.793 1006.84H993.554V1008.26H986.793V1006.84ZM997.809 1012V1002.09H999.331V1012H997.809ZM998.583 1000.44C998.286 1000.44 998.03 1000.34 997.815 1000.14C997.604 999.934 997.499 999.691 997.499 999.407C997.499 999.123 997.604 998.88 997.815 998.678C998.03 998.476 998.286 998.375 998.583 998.375C998.88 998.375 999.133 998.476 999.344 998.678C999.559 998.88 999.667 999.123 999.667 999.407C999.667 999.691 999.559 999.934 999.344 1000.14C999.133 1000.34 998.88 1000.44 998.583 1000.44ZM1002.12 1012V1002.09H1003.59V1003.59H1003.69C1003.87 1003.1 1004.2 1002.7 1004.67 1002.39C1005.15 1002.09 1005.68 1001.94 1006.27 1001.94C1006.39 1001.94 1006.53 1001.94 1006.69 1001.94C1006.86 1001.95 1006.99 1001.95 1007.07 1001.96V1003.51C1007.02 1003.5 1006.9 1003.48 1006.72 1003.45C1006.54 1003.42 1006.35 1003.41 1006.15 1003.41C1005.66 1003.41 1005.23 1003.51 1004.86 1003.71C1004.48 1003.91 1004.18 1004.18 1003.96 1004.54C1003.75 1004.88 1003.64 1005.28 1003.64 1005.73V1012H1002.12Z" fill="#B8B8B8"/>
<defs>
<filter id="filter0_d_22_904" x="0" y="1033" width="1912" height="57" filterUnits="userSpaceOnUse" color-interpolation-filters="sRGB">
<feFlood flood-opacity="0" result="BackgroundImageFix"/>
<feColorMatrix in="SourceAlpha" type="matrix" values="0 0 0 0 0 0 0 0 0 0 0 0 0 0 0 0 0 0 127 0" result="hardAlpha"/>
<feOffset dy="8"/>
<feGaussianBlur stdDeviation="9.5"/>
<feComposite in2="hardAlpha" operator="out"/>
<feColorMatrix type="matrix" values="0 0 0 0 0 0 0 0 0 0 0 0 0 0 0 0 0 0 0.27 0"/>
<feBlend mode="normal" in2="BackgroundImageFix" result="effect1_dropShadow_22_904"/>
<feBlend mode="normal" in="SourceGraphic" in2="effect1_dropShadow_22_904" result="shape"/>
</filter>
<linearGradient id="paint0_linear_22_904" x1="88.6654" y1="1032.1" x2="1802.44" y2="1032.09" gradientUnits="userSpaceOnUse">
<stop stop-color="#9B9B9B"/>
<stop offset="0.0563001" stop-color="#A1A1A2"/>
<stop offset="0.5" stop-color="#F0F0F0"/>
<stop offset="0.944691" stop-color="#B4B4B4"/>
<stop offset="1" stop-color="#8A8B8D"/>
</linearGradient>
<linearGradient id="paint1_linear_22_904" x1="1803" y1="1044" x2="1803" y2="1063" gradientUnits="userSpaceOnUse">
<stop stop-color="#9B9B9B"/>
<stop offset="0.097078" stop-color="#A7A7A7"/>
<stop offset="0.359375" stop-color="#A4A4A4"/>
<stop offset="0.528141" stop-color="#9C9C9C"/>
<stop offset="0.9999" stop-color="#858585"/>
<stop offset="1" stop-color="#606060"/>
</linearGradient>
<linearGradient id="paint2_linear_22_904" x1="832" y1="1030" x2="1078" y2="1030" gradientUnits="userSpaceOnUse">
<stop stop-color="#9B9B9B"/>
<stop offset="0.0563001" stop-color="#A1A1A2"/>
<stop offset="0.5" stop-color="#F0F0F0"/>
<stop offset="0.944691" stop-color="#B4B4B4"/>
<stop offset="1" stop-color="#8A8B8D"/>
</linearGradient>
</defs>
</svg>