<svg xmlns="http://www.w3.org/2000/svg" width="1874" height="1060" viewBox="0 0 1874 1060" fill="none">
<path class="eae-frame" fill-rule="evenodd" clip-rule="evenodd" d="M221 1H1651C1675.3 1 1695 20.6995 1695 45V1001C1695 1025.3 1675.3 1045 1651 1045H221C196.699 1045 177 1025.3 177 1001V45C177 20.6995 196.699 1 221 1ZM216 68H1656V968H216V68Z" fill="#212121"/>
<path d="M1656 68H1656.5V67.5H1656V68ZM216 68V67.5H215.5V68H216ZM1656 968V968.5H1656.5V968H1656ZM216 968H215.5V968.5H216V968ZM1651 0.5H221V1.5H1651V0.5ZM1695.5 45C1695.5 20.4233 1675.58 0.5 1651 0.5V1.5C1675.02 1.5 1694.5 20.9756 1694.5 45H1695.5ZM1695.5 1001V45H1694.5V1001H1695.5ZM1651 1045.5C1675.58 1045.5 1695.5 1025.58 1695.5 1001H1694.5C1694.5 1025.02 1675.02 1044.5 1651 1044.5V1045.5ZM221 1045.5H1651V1044.5H221V1045.5ZM176.5 1001C176.5 1025.58 196.423 1045.5 221 1045.5V1044.5C196.976 1044.5 177.5 1025.02 177.5 1001H176.5ZM176.5 45V1001H177.5V45H176.5ZM221 0.5C196.423 0.5 176.5 20.4233 176.5 45H177.5C177.5 20.9756 196.976 1.5 221 1.5V0.5ZM1656 67.5H216V68.5H1656V67.5ZM1656.5 968V68H1655.5V968H1656.5ZM216 968.5H1656V967.5H216V968.5ZM215.5 68V968H216.5V68H215.5Z" fill="black"/>
<path fill-rule="evenodd" clip-rule="evenodd" d="M8 1014H1866C1870.42 1014 1874 1017.58 1874 1022V1044H0V1022C0 1017.58 3.58172 1014 8 1014Z" fill="#181818"/>
<path class="eae-frame-element" fill-rule="evenodd" clip-rule="evenodd" d="M8 1018H1866C1868.21 1018 1870 1019.79 1870 1022V1040H4V1022C4 1019.79 5.79086 1018 8 1018Z" fill="white" fill-opacity="0.04"/>
<path class="eae-frame" fill-rule="evenodd" clip-rule="evenodd" d="M1072 1014H803V1015C803 1026.05 811.954 1035 823 1035H1052C1063.05 1035 1072 1026.05 1072 1015V1014ZM1874 1044H0L7.94118 1048.24C22.4242 1055.96 38.5859 1060 55 1060H1819C1835.41 1060 1851.58 1055.96 1866.06 1048.24L1874 1044Z" fill="#181818"/>
<path fill-rule="evenodd" clip-rule="evenodd" d="M937 41.5C940.314 41.5 943 38.8137 943 35.5C943 32.1863 940.314 29.5 937 29.5C933.686 29.5 931 32.1863 931 35.5C931 38.8137 933.686 41.5 937 41.5Z" fill="#181818"/>
<path fill-rule="evenodd" clip-rule="evenodd" d="M937 38.5C938.657 38.5 940 37.1569 940 35.5C940 33.8432 938.657 32.5 937 32.5C935.343 32.5 934 33.8432 934 35.5C934 37.1569 935.343 38.5 937 38.5Z" fill="#0F0F0F"/>
<path d="M859 1001.73H861.297V986.484H861.379L867.682 1001.73H869.76L876.062 986.484H876.145V1001.73H878.441V982H875.598L868.762 998.625H868.68L861.844 982H859V1001.73Z" fill="#666666"/>
<path d="M886.006 1002C887.907 1002 889.616 1000.98 890.45 999.418H890.505V1001.73H892.883V991.898C892.883 989.055 890.778 987.236 887.415 987.236C884.065 987.236 882.028 989.123 881.823 991.461L881.809 991.611H884.106L884.133 991.488C884.407 990.217 885.555 989.342 887.387 989.342C889.37 989.342 890.505 990.395 890.505 992.131V993.32L886.43 993.553C883.163 993.744 881.276 995.262 881.276 997.682V997.709C881.276 1000.29 883.176 1002 886.006 1002ZM883.71 997.709V997.682C883.71 996.355 884.803 995.508 886.704 995.398L890.505 995.166V996.328C890.505 998.393 888.782 999.938 886.54 999.938C884.831 999.938 883.71 999.076 883.71 997.709Z" fill="#666666"/>
<path d="M902.158 1002C905.37 1002 907.708 999.91 908.091 997.203L908.105 997.107H905.767L905.74 997.217C905.343 998.803 904.099 999.896 902.158 999.896C899.697 999.896 898.001 997.941 898.001 994.633V994.619C898.001 991.393 899.656 989.342 902.13 989.342C904.222 989.342 905.37 990.6 905.726 992.021L905.753 992.131H908.077L908.064 992.021C907.763 989.588 905.671 987.236 902.13 987.236C898.179 987.236 895.568 990.107 895.568 994.592V994.605C895.568 999.131 898.124 1002 902.158 1002Z" fill="#666666"/>
<path d="M911.021 1001.73H918.473C922.67 1001.73 925.158 999.664 925.158 996.191V996.164C925.158 993.553 923.435 991.639 920.592 991.311V991.256C922.629 990.969 924.16 988.986 924.16 986.949V986.922C924.16 983.969 921.877 982 918.5 982H911.021V1001.73ZM917.939 984.174C920.318 984.174 921.672 985.24 921.672 987.182V987.209C921.672 989.342 920.086 990.504 917.174 990.504H913.482V984.174H917.939ZM917.871 992.623C921.016 992.623 922.629 993.785 922.629 996.068V996.096C922.629 998.365 921.057 999.555 918.103 999.555H913.482V992.623H917.871Z" fill="#666666"/>
<path d="M933.831 1002C937.754 1002 940.407 999.158 940.407 994.619V994.592C940.407 990.053 937.741 987.236 933.817 987.236C929.893 987.236 927.241 990.066 927.241 994.592V994.619C927.241 999.145 929.879 1002 933.831 1002ZM933.844 999.896C931.329 999.896 929.674 997.969 929.674 994.619V994.592C929.674 991.27 931.342 989.342 933.817 989.342C936.333 989.342 937.973 991.256 937.973 994.592V994.619C937.973 997.955 936.346 999.896 933.844 999.896Z" fill="#666666"/>
<path d="M949.066 1002C952.989 1002 955.642 999.158 955.642 994.619V994.592C955.642 990.053 952.976 987.236 949.052 987.236C945.128 987.236 942.476 990.066 942.476 994.592V994.619C942.476 999.145 945.114 1002 949.066 1002ZM949.079 999.896C946.564 999.896 944.909 997.969 944.909 994.619V994.592C944.909 991.27 946.577 989.342 949.052 989.342C951.568 989.342 953.208 991.256 953.208 994.592V994.619C953.208 997.955 951.581 999.896 949.079 999.896Z" fill="#666666"/>
<path d="M958.599 1001.73H960.978V996.369L962.305 995.098L967.582 1001.73H970.344L963.986 993.648L970.152 987.51H967.267L961.033 993.785H960.978V982H958.599V1001.73Z" fill="#666666"/>
<path d="M978.829 1001.73H981.29V994.688H985.857C989.562 994.688 992.187 992.076 992.187 988.33V988.303C992.187 984.557 989.562 982 985.857 982H978.829V1001.73ZM985.228 984.188C988.044 984.188 989.671 985.732 989.671 988.33V988.357C989.671 990.955 988.044 992.5 985.228 992.5H981.29V984.188H985.228Z" fill="#666666"/>
<path d="M995.008 1001.73H997.386V992.951C997.386 990.791 998.59 989.506 1000.44 989.506C1001.01 989.506 1001.52 989.574 1001.71 989.643V987.332C1001.52 987.305 1001.16 987.236 1000.75 987.236C999.15 987.236 997.92 988.275 997.441 989.916H997.386V987.51H995.008V1001.73Z" fill="#666666"/>
<path d="M1009.22 1002C1013.14 1002 1015.79 999.158 1015.79 994.619V994.592C1015.79 990.053 1013.13 987.236 1009.2 987.236C1005.28 987.236 1002.63 990.066 1002.63 994.592V994.619C1002.63 999.145 1005.27 1002 1009.22 1002ZM1009.23 999.896C1006.72 999.896 1005.06 997.969 1005.06 994.619V994.592C1005.06 991.27 1006.73 989.342 1009.2 989.342C1011.72 989.342 1013.36 991.256 1013.36 994.592V994.619C1013.36 997.955 1011.73 999.896 1009.23 999.896Z" fill="#666666"/>
</svg>